PathFileType	4	(X/Y/Z)	C:\Users\Basilio\Documents\Thesis Gigler\squatting_fais\c3dfiles\077\SLS_front_pre3\markers_experimental.trc
DataRate	CameraRate	NumFrames	NumMarkers	Units	OrigDataRate	OrigDataStartFrame	OrigNumFrames
200.000000	200.000000	4	60	mm	200.000000	1099	1466
Frame#	Time	FHD			LBHD			RBHD			C7			T10			CLAV			LSHO			LUUPA			LMUPA			LDUPA			LLEP			LMEP			LRAD			LUL			LRFIN			RSHO			RUPA1			RMUPA			RDUPA			RLEP			RMEP			RUL			RUFIN			LASI			RASI			USACR			LSACR			RSACR			LTHI1			LTHI2			LTHI3			LTHI4			LLFC			LMFC			LTIB1			LTIB2			LTIB3			LTIB4			LLMAL			LHEE			LMT1			LMT2			LMT5			RTHI			RTHI2			RTHI3			RTHI4			RLFC			RMFC			RTIB1			RTIB2			RTIB3			RTIB4			RLMAL			RMMAL			RHEE			RMT1			RMT2			RMT5			RRAD			
		X1	Y1	Z1	X2	Y2	Z2	X3	Y3	Z3	X4	Y4	Z4	X5	Y5	Z5	X6	Y6	Z6	X7	Y7	Z7	X8	Y8	Z8	X9	Y9	Z9	X10	Y10	Z10	X11	Y11	Z11	X12	Y12	Z12	X13	Y13	Z13	X14	Y14	Z14	X15	Y15	Z15	X16	Y16	Z16	X17	Y17	Z17	X18	Y18	Z18	X19	Y19	Z19	X20	Y20	Z20	X21	Y21	Z21	X22	Y22	Z22	X23	Y23	Z23	X24	Y24	Z24	X25	Y25	Z25	X26	Y26	Z26	X27	Y27	Z27	X28	Y28	Z28	X29	Y29	Z29	X30	Y30	Z30	X31	Y31	Z31	X32	Y32	Z32	X33	Y33	Z33	X34	Y34	Z34	X35	Y35	Z35	X36	Y36	Z36	X37	Y37	Z37	X38	Y38	Z38	X39	Y39	Z39	X40	Y40	Z40	X41	Y41	Z41	X42	Y42	Z42	X43	Y43	Z43	X44	Y44	Z44	X45	Y45	Z45	X46	Y46	Z46	X47	Y47	Z47	X48	Y48	Z48	X49	Y49	Z49	X50	Y50	Z50	X51	Y51	Z51	X52	Y52	Z52	X53	Y53	Z53	X54	Y54	Z54	X55	Y55	Z55	X56	Y56	Z56	X57	Y57	Z57	X58	Y58	Z58	X59	Y59	Z59	X60	Y60	Z60	

1100	5.495	-283.2990722656251	1852.334106445313	-1047.677001953125	-411.1396484375001	1734.181762695313	-1125.539916992188	-420.0444946289064	1723.90185546875	-979.785339355469	-440.0142517089845	1585.790893554688	-1069.55029296875	-443.7806396484376	1258.880249023438	-1047.171264648438	-274.9545288085938	1547.64306640625	-1057.912231445313	-288.0510864257813	1584.305419921875	-1230.105712890625	-112.3611831665039	1536.286010742188	-1320.361938476563	-85.95052337646486	1568.301391601563	-1292.677612304688	-43.6777687072754	1535.751831054688	-1321.4150390625	20.25302696228028	1546.456420898438	-1312.320068359375	26.13535690307618	1478.454345703125	-1283.43359375	302.0419616699219	1587.332275390625	-1175.97216796875	314.2757873535157	1590.607788085938	-1254.272094726563	401.6450195312501	1614.166259765625	-1177.448486328125	-296.6844482421876	1581.136352539063	-895.788024902344	-141.3148345947266	1545.896606445313	-786.9830322265627	-115.0340652465821	1572.962036132813	-819.741394042969	-71.45406341552736	1547.811767578125	-785.3855590820315	-5.901683807373048	1555.607788085938	-794.0972900390627	0.3933933675289155	1482.198120117188	-821.5271606445315	287.9319152832032	1596.4169921875	-819.1976318359377	374.1788940429688	1606.89404296875	-898.9656372070315	-250.4575653076172	1065.230102539063	-1166.322143554688	-270.5850524902344	1099.528076171875	-890.723571777344	-454.4918212890626	1146.92236328125	-1037.367553710938	-458.5381469726564	1117.4560546875	-1065.21826171875	-465.487030029297	1115.386840820313	-1010.232727050781	-294.6631774902344	839.4936523437502	-1200.5244140625	-260.5499877929688	762.4715576171876	-1190.302490234375	-212.0734252929688	768.4223632812502	-1187.917358398438	-285.1845397949219	711.4296875000001	-1170.60888671875	-250.3123016357422	566.2196655273439	-1135.458251953125	-245.4612426757813	557.8552246093751	-1003.022888183594	-246.8817749023438	347.6543273925782	-1043.072998046875	-275.3247070312501	299.3353881835938	-1113.082275390625	-248.8778991699219	296.9965209960938	-1073.643310546875	-271.4363098144532	223.4144439697266	-1037.956787109375	-346.2187805175782	111.327262878418	-1076.430053710938	-405.4343872070314	80.96749114990236	-1024.06494140625	-193.8809051513672	53.36709213256837	-1006.901428222656	-190.3787231445313	58.58095932006837	-1049.738647460938	-321.7532958984376	125.6466827392578	-990.9395141601565	-97.34453582763675	851.2695922851565	-844.377868652344	-30.85396575927735	849.8289794921877	-853.6924438476565	-12.25734615325928	877.2475585937502	-862.5106201171877	11.7337875366211	780.1458129882815	-871.1357421875002	56.20517349243165	732.9448852539064	-878.086608886719	71.99672698974611	743.4540405273439	-1006.937255859375	172.5976867675782	649.1715698242189	-909.941101074219	166.4909973144532	547.9005737304689	-879.1788330078127	201.672348022461	567.7045288085939	-903.1467285156252	225.4315338134766	535.2493286132814	-946.6872558593752	275.0562438964844	346.0499572753907	-916.8721923828127	281.6540527343751	372.3576354980469	-1004.818359375	246.7030639648438	273.6025085449219	-975.1213989257815	426.6744995117189	416.2705993652345	-976.519958496094	427.227264404297	412.0149536132814	-938.5437622070315	431.1085510253907	377.9476013183594	-894.5642089843752	nan	nan	nan	
1101	5.5	-283.9703979492188	1853.153686523438	-1048.100219726563	-410.9337158203126	1734.16552734375	-1125.43994140625	-419.820770263672	1724.212768554688	-979.7461547851565	-439.8547363281251	1585.8173828125	-1069.494995117188	-443.6437072753907	1258.904907226563	-1047.166259765625	-274.6967468261719	1547.710693359375	-1057.825439453125	-287.8121337890626	1584.369873046875	-1230.069091796875	-112.248031616211	1536.274658203125	-1320.399536132813	-85.75109863281251	1568.167236328125	-1292.593505859375	-43.50060272216798	1535.693237304688	-1321.401123046875	20.35267639160157	1546.369262695313	-1312.270385742188	26.24989318847657	1478.373168945313	-1283.465942382813	302.4545593261719	1587.091064453125	-1175.944213867188	314.3562622070313	1590.346923828125	-1254.201782226563	401.795867919922	1613.525390625	-1177.32177734375	-296.7259216308594	1581.286743164063	-895.8350219726565	-141.1454162597657	1546.040405273438	-786.963806152344	-114.8542785644532	1573.214477539063	-819.7392578125002	-71.2321014404297	1547.91015625	-785.2999267578127	-5.767006397247315	1555.631958007813	-794.1213378906252	0.5900748372077943	1482.276000976563	-821.4769287109377	288.0671081542969	1596.580200195313	-819.2568359375002	374.2366027832032	1607.1328125	-899.0943603515627	-250.3543090820313	1065.184692382813	-1166.306762695313	-270.3998413085938	1099.52392578125	-890.7773437500002	-454.2877197265626	1146.897338867188	-1037.372924804688	-457.278289794922	1117.512817382813	-1065.608154296875	-463.7843627929689	1115.545532226563	-1010.53173828125	-294.5352478027344	839.4173583984377	-1200.50927734375	-260.6701049804688	762.5955810546876	-1190.366333007813	-212.1009674072266	768.461120605469	-1187.922973632813	-285.0498657226563	711.4086914062501	-1170.544677734375	-250.1199645996094	566.1909179687501	-1135.37255859375	-245.5326232910157	557.8787231445314	-1002.998413085938	-246.9276733398438	347.6102905273438	-1043.033935546875	-275.2968444824219	299.3334655761719	-1113.05517578125	-248.9272766113282	296.9797363281251	-1073.583740234375	-271.4318847656251	223.4144897460938	-1037.930908203125	-345.5534667968751	111.0261154174805	-1076.375	-405.4047851562501	80.94113922119142	-1024.02880859375	-193.8802947998047	53.37694168090822	-1006.982421875	-190.4100799560547	58.64800262451173	-1049.697021484375	-321.7151489257813	125.6501998901367	-990.8610839843752	-97.21878814697268	851.2589111328127	-844.4500732421877	-30.69913482666016	849.760192871094	-853.7752685546877	-12.15453720092774	877.1120605468752	-862.6321411132815	12.27100086212159	780.5220336914065	-871.034362792969	56.22094726562501	732.7523803710939	-878.2338867187502	71.91298675537111	743.2489013671876	-1007.076538085938	172.6674499511719	648.9230957031251	-910.0445556640627	166.4762573242188	547.7509155273439	-879.3432617187502	201.6588439941407	567.4692382812501	-903.372253417969	225.3788757324219	535.0751953125001	-946.9311523437502	275.0352478027344	345.8167419433594	-917.0571289062502	281.5561828613282	372.1088867187501	-1005.09716796875	246.6708679199219	273.4103088378907	-975.3526000976565	426.628143310547	416.0647583007814	-976.8212890625002	427.1665344238282	411.806121826172	-938.737976074219	431.0820312500001	377.5750427246094	-894.886657714844	277.6378479003907	1585.320190429688	-898.5498046875002	
1102	5.505	-283.2804260253907	1852.625244140625	-1047.805541992188	-410.7386474609376	1734.095336914063	-1125.431884765625	-419.7859191894532	1723.862182617188	-979.6641235351565	-439.6972961425782	1585.953735351563	-1069.437133789063	-443.4948730468751	1258.974731445313	-1047.167846679688	-274.4856872558594	1547.75830078125	-1057.807250976563	-287.6039428710938	1584.334594726563	-1230.0322265625	-111.9751815795899	1536.241455078125	-1320.37353515625	-85.44886779785158	1568.073364257813	-1292.535888671875	-43.02262878417969	1535.595458984375	-1321.300537109375	20.64090919494629	1546.209228515625	-1312.1708984375	26.52127075195313	1478.149169921875	-1283.331176757813	302.6840820312501	1586.867797851563	-1175.990844726563	314.3896179199219	1590.05029296875	-1254.124145507813	402.1094055175782	1613.156005859375	-1177.225341796875	-296.3674316406251	1581.255493164063	-895.7354125976565	-140.9298706054688	1546.180786132813	-786.885437011719	-114.6812286376953	1573.2119140625	-819.7786254882815	-71.19561004638673	1547.8876953125	-785.4697265625002	-5.626664638519288	1555.692993164063	-794.1257324218752	0.793582081794739	1482.41845703125	-821.4670410156252	288.2043151855469	1596.692138671875	-819.3198242187502	374.3024291992188	1607.244384765625	-899.1540527343752	-250.1315460205079	1065.187744140625	-1166.295043945313	-270.9341430664063	1098.65576171875	-891.8693847656252	-454.0958862304689	1146.948486328125	-1037.341552734375	-457.1883239746095	1117.562866210938	-1065.54443359375	-463.5872497558595	1115.614501953125	-1010.494934082031	-294.5226745605469	839.3933105468752	-1200.455078125	-260.6107177734376	762.6700439453126	-1190.302124023438	-212.0612945556641	768.5306396484377	-1187.912475585938	-285.1900329589844	711.4158935546876	-1170.512451171875	-250.2622985839844	566.2315673828126	-1135.337768554688	-245.5912322998047	557.8940429687501	-1002.907470703125	-246.8948059082032	347.6125793457032	-1043.024658203125	-275.3432312011719	299.3186035156251	-1113.022216796875	-248.893783569336	297.0935363769532	-1073.550415039063	-271.4169616699219	223.4029693603516	-1037.8984375	-345.5742187500001	110.9976425170899	-1076.360107421875	-405.4020996093751	80.87243652343751	-1024.015747070313	-193.8404998779297	53.39731216430665	-1006.933410644531	-190.4695892333985	58.61291885375978	-1049.681030273438	-321.7322998046876	125.6370010375977	-990.9031372070315	-97.0776062011719	851.1456298828127	-844.5654907226565	-30.58269309997559	849.723815917969	-853.8745117187502	-12.03412818908692	877.0521240234377	-862.7136230468752	12.29530429840088	780.3197021484377	-871.2447509765627	56.25030899047853	732.5541992187501	-878.3811645507815	72.0241165161133	742.9984741210939	-1007.186584472656	172.7214813232422	648.6588134765626	-910.2285156250002	166.5326538085938	547.5930786132814	-879.5330810546877	201.7046508789063	567.3278808593751	-903.5740966796877	225.5394592285157	534.7760620117189	-946.9786376953127	275.0501098632813	345.5921630859376	-917.2903442382815	281.1581726074219	372.0169372558594	-1005.375244140625	246.6632843017579	273.2916564941407	-975.497741699219	426.4495544433595	415.7704162597657	-977.1326293945315	427.1897888183595	411.7180175781251	-938.9797973632815	430.9726867675782	377.1839294433594	-895.2941894531252	277.7742614746094	1585.580078125	-898.628112792969	
1103	5.51	-283.1612243652344	1852.677734375	-1047.826416015625	-410.6515197753907	1734.123291015625	-1125.383911132813	-419.9432678222657	1722.790283203125	-979.6525878906252	-439.5247192382814	1585.950927734375	-1069.44775390625	-443.2951049804689	1259.017944335938	-1047.141479492188	-274.2162170410157	1547.900634765625	-1057.760375976563	-287.4463500976563	1584.406372070313	-1230.001220703125	-111.8098297119141	1536.236694335938	-1320.348388671875	-85.23567962646486	1568.063598632813	-1292.435546875	-42.87134170532227	1535.4560546875	-1321.177368164063	20.90025520324707	1546.08642578125	-1312.06396484375	26.66801261901856	1478.025024414063	-1283.344482421875	303.0046997070313	1586.610107421875	-1175.907104492188	314.6622009277344	1589.718139648438	-1254.041381835938	402.173065185547	1613.315795898438	-1176.623046875	-296.2872619628907	1581.291015625	-895.7238769531252	-140.7531280517578	1546.167602539063	-786.9663696289065	-114.4618377685547	1573.219970703125	-819.7144775390627	-70.97693634033205	1547.953857421875	-785.437683105469	-5.419379234313966	1555.816040039063	-794.2515869140627	1.020383477210999	1482.529418945313	-821.480651855469	288.3266296386719	1596.852416992188	-819.4092407226565	374.4237365722657	1607.4541015625	-899.2746582031252	-249.9271697998047	1065.111694335938	-1166.406860351563	-270.0517272949219	1099.529418945313	-890.8172607421877	-453.9427490234376	1147.116333007813	-1037.339233398438	-458.0989379882814	1117.601806640625	-1065.165771484375	-464.9155273437501	1115.417114257813	-1010.1630859375	-294.3519897460938	839.3529052734377	-1200.427856445313	-260.4130249023438	762.5549316406251	-1190.21630859375	-211.8745422363282	768.5020141601565	-1187.824096679688	-285.0884094238282	711.3909912109376	-1170.48388671875	-250.2393341064454	566.2578735351564	-1135.313110351563	-245.6756896972657	557.9324340820314	-1002.87158203125	-246.8428192138672	347.7018432617188	-1042.865356445313	-275.2707824707032	299.3235473632813	-1112.978149414063	-248.8249053955079	296.9379577636719	-1073.413330078125	-271.3838500976563	223.4510345458985	-1037.818725585938	-346.2643127441407	111.4168930053711	-1076.368774414063	-405.3778076171876	80.8745803833008	-1023.979553222656	-193.8668823242188	53.33463668823244	-1006.933532714844	-190.4580841064453	58.66101837158205	-1049.668823242188	-321.7515258789063	125.620231628418	-990.8530273437502	-96.94444274902347	851.0886840820315	-844.622253417969	-30.44617462158204	849.685241699219	-853.9007568359377	-11.90567302703858	876.9722900390627	-862.875427246094	12.37966918945313	780.2048339843752	-871.446960449219	56.28948211669923	732.4512939453126	-878.544372558594	71.93509674072267	742.8386230468751	-1007.333129882813	172.7434692382813	648.4653320312501	-910.417907714844	166.545166015625	547.4085693359376	-879.6992187500002	201.605453491211	567.1538085937501	-903.7740478515627	225.4814147949219	534.6451416015626	-947.3582763671877	274.9877929687501	345.3285522460938	-917.5120849609377	281.3926391601563	371.8074035644532	-1005.551879882813	246.5554656982422	273.1129760742188	-975.5933227539065	426.3944702148439	415.6971435546876	-977.4318847656252	426.7339172363282	410.7123107910157	-939.2041015625002	430.9717407226564	377.0551147460938	-895.459899902344	277.8178710937501	1585.720336914063	-898.698425292969	
